<?xml version="1.0" encoding="UTF-8" standalone="no"?>
<!-- Created with Inkscape (http://www.inkscape.org/) -->

<svg
   width="501.74026mm"
   height="227.70007mm"
   viewBox="0 0 501.74026 227.70007"
   version="1.1"
   id="svg1"
   xml:space="preserve"
   inkscape:version="1.3 (0e150ed6c4, 2023-07-21)"
   sodipodi:docname="imagotipo_1.svg"
   inkscape:export-filename="..\EleccionesMunicipal\static\favicon.png"
   inkscape:export-xdpi="96"
   inkscape:export-ydpi="96"
   xmlns:inkscape="http://www.inkscape.org/namespaces/inkscape"
   xmlns:sodipodi="http://sodipodi.sourceforge.net/DTD/sodipodi-0.dtd"
   xmlns:xlink="http://www.w3.org/1999/xlink"
   xmlns="http://www.w3.org/2000/svg"
   xmlns:svg="http://www.w3.org/2000/svg"><sodipodi:namedview
     id="namedview1"
     pagecolor="#ffffff"
     bordercolor="#000000"
     borderopacity="0.25"
     inkscape:showpageshadow="2"
     inkscape:pageopacity="0.0"
     inkscape:pagecheckerboard="0"
     inkscape:deskcolor="#d1d1d1"
     inkscape:document-units="mm"
     showguides="true"
     inkscape:zoom="0.25"
     inkscape:cx="648"
     inkscape:cy="1078"
     inkscape:window-width="1920"
     inkscape:window-height="1009"
     inkscape:window-x="1912"
     inkscape:window-y="-8"
     inkscape:window-maximized="1"
     inkscape:current-layer="layer2" /><defs
     id="defs1"><linearGradient
       id="linearGradient4"
       inkscape:collect="always"><stop
         style="stop-color:#0d2e47;stop-opacity:1;"
         offset="0"
         id="stop4" /><stop
         style="stop-color:#0d2e47;stop-opacity:0.62459546;"
         offset="0.45324674"
         id="stop6" /><stop
         style="stop-color:#0d2e47;stop-opacity:1;"
         offset="1"
         id="stop5" /></linearGradient><linearGradient
       id="linearGradient2"
       inkscape:collect="always"><stop
         style="stop-color:#0d2e47;stop-opacity:1;"
         offset="0"
         id="stop2" /><stop
         style="stop-color:#0d2e47;stop-opacity:0.58737862;"
         offset="1"
         id="stop3" /></linearGradient><linearGradient
       id="linearGradient107"
       inkscape:collect="always"><stop
         style="stop-color:#da121a;stop-opacity:0.69999999;"
         offset="0"
         id="stop102" /><stop
         style="stop-color:#da121a;stop-opacity:0.69999999;"
         offset="0.33854166"
         id="stop103" /><stop
         style="stop-color:#ffffff;stop-opacity:1;"
         offset="0.40000001"
         id="stop104" /><stop
         style="stop-color:#ffffff;stop-opacity:1;"
         offset="0.60416663"
         id="stop105" /><stop
         style="stop-color:#078930;stop-opacity:0.69999999;"
         offset="0.65104169"
         id="stop106" /><stop
         style="stop-color:#078930;stop-opacity:0.69999999;"
         offset="1"
         id="stop107" /></linearGradient><clipPath
       clipPathUnits="userSpaceOnUse"
       id="clipPath54"><path
         id="path54"
         style="stroke-width:0.0999999;stroke-linecap:square;paint-order:markers fill stroke;stop-color:#000000"
         d="m 1691.1994,-792.32001 h 1634.8919 v 92.82806 H 1691.1994 Z" /></clipPath><linearGradient
       id="linearGradient79"
       inkscape:swatch="gradient"><stop
         style="stop-color:#d40000;stop-opacity:1;"
         offset="0"
         id="stop79" /><stop
         style="stop-color:#127736;stop-opacity:1;"
         offset="0.33072916"
         id="stop81" /><stop
         style="stop-color:#29652e;stop-opacity:1;"
         offset="0.72395831"
         id="stop82" /><stop
         style="stop-color:#ffd7d7;stop-opacity:1;"
         offset="1"
         id="stop80" /></linearGradient><linearGradient
       inkscape:collect="always"
       xlink:href="#linearGradient107"
       id="linearGradient1"
       gradientUnits="userSpaceOnUse"
       gradientTransform="translate(20.328862,464.04453)"
       x1="249.17078"
       y1="108.16673"
       x2="446.08423"
       y2="108.16673" /><linearGradient
       inkscape:collect="always"
       xlink:href="#linearGradient2"
       id="linearGradient3"
       x1="245.59058"
       y1="-159.29576"
       x2="445.69516"
       y2="-159.29576"
       gradientUnits="userSpaceOnUse"
       gradientTransform="matrix(1.0129181,0,0,1.0122361,57.387347,-17.879237)" /><linearGradient
       inkscape:collect="always"
       xlink:href="#linearGradient4"
       id="linearGradient5"
       x1="245.59058"
       y1="-23.501896"
       x2="747.33081"
       y2="-23.501896"
       gradientUnits="userSpaceOnUse"
       gradientTransform="translate(0,-36.512517)" /></defs><g
     inkscape:label="Layer 1"
     inkscape:groupmode="layer"
     id="layer1"
     transform="translate(-519.91775,192.17702)" /><g
     inkscape:groupmode="layer"
     id="layer4"
     inkscape:label="circulo"
     transform="translate(-245.59057,254.12416)" /><g
     inkscape:groupmode="layer"
     id="layer3"
     inkscape:label="Colores"
     style="display:inline"
     transform="translate(-245.59057,254.12416)" /><g
     inkscape:groupmode="layer"
     id="layer2"
     inkscape:label="Contorno"
     style="display:inline"
     transform="translate(-245.59057,254.12416)"><path
       style="font-size:92.2811px;line-height:0;font-family:'Nunito Sans';-inkscape-font-specification:'Nunito Sans, @wght=800,wdth=86.4';font-variation-settings:'wdth' 86.4, 'wght' 800;fill:url(#linearGradient5);fill-opacity:1;fill-rule:evenodd;stroke-width:0.299"
       d="m 275.2128,-26.424087 q -8.85899,0 -15.59551,-3.875809 -6.64423,-3.968089 -10.33548,-11.442862 -3.69124,-7.567053 -3.69124,-18.363942 0,-10.796888 3.69124,-18.271657 3.78353,-7.474769 10.42777,-11.350575 6.64423,-3.875806 15.5955,-3.875806 6.3674,0 11.35058,1.568778 5.07546,1.476498 8.58214,4.890899 l -4.33721,11.258293 q -3.59897,-2.860714 -7.10565,-3.968087 -3.50668,-1.107373 -7.56705,-1.107373 -7.19792,0 -11.53514,4.983179 -4.24493,4.98318 -4.24493,15.780068 0,10.796888 4.24493,15.964631 4.24494,5.075463 11.53514,5.075463 4.06037,0 7.56705,-1.107373 3.50668,-1.107374 7.10565,-3.96809 l 4.33721,11.258301 q -3.50668,3.414402 -8.58214,4.983182 -5.07546,1.56878 -11.44286,1.56878 z m 21.35234,-1.107375 26.76152,-65.058184 h 13.10392 l 26.66924,65.058184 h -15.22639 l -6.64423,-17.994824 5.62914,5.536869 h -34.42085 l 5.72143,-5.536869 -6.73652,17.994824 z m 32.85208,-50.38549 -10.61233,28.883984 -1.75334,-2.952995 h 25.28502 l -1.84562,2.952995 -10.52005,-28.883984 z m 37.28161,50.38549 v -65.058184 h 11.81198 l 29.34539,43.648959 h -0.18456 v -43.648959 h 13.84216 v 65.058184 H 408.68673 L 380.26415,-70.16534 h 0.27685 v 42.633878 z m 62.93564,0 v -65.058184 h 25.46958 q 9.59724,0 16.24148,3.783525 6.73652,3.783525 10.2432,11.073731 3.59896,7.197926 3.59896,17.62569 0,10.427764 -3.59896,17.717973 -3.50668,7.290211 -10.2432,11.073738 -6.64424,3.783527 -16.24148,3.783527 z m 14.58041,-12.365674 h 9.7818 q 7.93617,0 12.08882,-4.983182 4.15265,-4.98318 4.15265,-15.226382 0,-10.243202 -4.15265,-15.1341 -4.15265,-4.983179 -12.08882,-4.983179 h -9.7818 z m 50.29311,12.365674 v -65.058184 h 14.58041 v 65.058184 z m 25.37726,0 v -65.058184 h 25.46958 q 9.59723,0 16.24147,3.783525 6.73652,3.783525 10.24321,11.073731 3.59896,7.197926 3.59896,17.62569 0,10.427764 -3.59896,17.717973 -3.50669,7.290211 -10.24321,11.073738 -6.64424,3.783527 -16.24147,3.783527 z m 14.58041,-12.365674 h 9.7818 q 7.93617,0 12.08882,-4.983182 4.15265,-4.98318 4.15265,-15.226382 0,-10.243202 -4.15265,-15.1341 -4.15265,-4.983179 -12.08882,-4.983179 h -9.7818 z m 41.79206,12.365674 26.76152,-65.058184 h 13.10392 l 26.66923,65.058184 h -15.22638 l -6.64424,-17.994824 5.62915,5.536869 h -34.42085 l 5.72143,-5.536869 -6.73652,17.994824 z m 32.85207,-50.38549 -10.61232,28.883984 -1.75334,-2.952995 h 25.28502 l -1.84563,2.952995 -10.52004,-28.883984 z m 44.69605,50.38549 v -52.600236 h -18.91763 v -12.457948 h 52.50795 v 12.457948 h -18.91763 v 52.600236 z m 63.62591,1.015093 q -6.92108,0 -12.45795,-2.214747 -5.44459,-2.307029 -9.41267,-6.644243 -3.87581,-4.429496 -5.99827,-10.612333 -2.12247,-6.182834 -2.12247,-14.119008 0,-7.751612 2.12247,-13.934446 2.12246,-6.182833 6.09055,-10.612326 3.96809,-4.429492 9.41267,-6.644239 5.53687,-2.307027 12.36567,-2.307027 6.8288,0 12.27338,2.307027 5.53687,2.307028 9.41268,6.644239 3.96808,4.337212 6.09055,10.520045 2.12246,6.182834 2.12246,13.934446 0,7.843893 -2.12246,14.119008 -2.12247,6.182837 -6.09055,10.612333 -3.87581,4.337214 -9.41268,6.644243 -5.44458,2.307028 -12.27338,2.307028 z m 0,-12.642518 q 4.8909,0 8.12073,-2.307028 3.32212,-2.39931 5.07546,-7.105648 1.84563,-4.706336 1.84563,-11.535137 0,-7.013363 -1.75334,-11.627418 -1.75335,-4.614055 -5.07546,-6.921082 -3.32212,-2.307028 -8.21302,-2.307028 -4.8909,0 -8.3053,2.399309 -3.32212,2.307027 -5.07546,6.921082 -1.75334,4.614055 -1.75334,11.627418 0,6.828801 1.75334,11.535137 1.75334,4.614057 5.07546,7.013367 3.4144,2.307028 8.3053,2.307028 z"
       id="text2-4-4"
       aria-label="CANDIDATO" /><g
       id="g2-4-0"
       transform="matrix(0.7159783,0,0,0.7159783,352.9302,-607.08468)"
       style="display:inline"><path
         id="path2-6-0-2-44-4"
         style="display:inline;fill:url(#linearGradient1);fill-opacity:1;fill-rule:evenodd;stroke:none;stroke-width:0.282;stroke-dasharray:none"
         d="m 370.09538,492.99317 c -1.58234,-0.0298 -3.16504,-0.0196 -4.74648,0.0315 l -2.23294,0.0548 c -3.02972,0.19004 -6.052,0.45732 -9.05887,0.87953 -3.62714,0.53583 -7.23128,1.24361 -10.78074,2.16421 -3.17649,0.83427 -6.31852,1.80226 -9.39581,2.94918 -3.86173,1.42999 -7.63543,3.09419 -11.28665,4.99866 -2.9195,1.50446 -5.74917,3.18028 -8.50077,4.97334 -3.1185,2.03766 -6.10979,4.26789 -8.98447,6.63629 -2.63705,2.22497 -5.20106,4.54182 -7.5923,7.03006 -2.90323,2.95558 -5.58067,6.12408 -8.08788,9.42061 -2.22261,2.95901 -4.27903,6.04435 -6.16706,9.22735 -2.09315,3.58505 -3.99682,7.28158 -5.62188,11.10268 -1.38311,3.16137 -2.54728,6.41403 -3.591,9.70225 -1.07227,3.48927 -1.96109,7.03546 -2.6541,10.6195 -0.62069,3.33562 -1.11454,6.69723 -1.38854,10.07949 -0.35653,4.06922 -0.44925,8.15901 -0.29043,12.2406 0.13224,3.6904 0.51124,7.36953 1.04128,11.0231 0.65343,4.03037 1.46828,8.039 2.61483,11.95999 0.90704,3.29486 2.03274,6.52794 3.29851,9.70174 1.26453,3.21137 2.74537,6.33247 4.33255,9.39632 1.77632,3.31248 3.69843,6.55125 5.83272,9.64644 1.06426,1.56001 2.18966,3.07638 3.34501,4.56923 l 22.63738,-14.06271 c -1.23626,-1.5229 -2.43406,-3.07653 -3.53983,-4.69738 -1.57461,-2.28354 -2.99259,-4.67305 -4.3031,-7.11688 -1.17098,-2.26042 -2.26379,-4.56314 -3.1967,-6.9324 -0.93386,-2.34152 -1.76426,-4.72686 -2.43345,-7.1577 -0.84588,-2.8928 -1.44699,-5.85025 -1.92908,-8.82375 -0.39105,-2.6955 -0.67031,-5.40965 -0.76791,-8.13232 -0.11717,-3.01127 -0.0486,-6.02883 0.21446,-9.03097 0.20215,-2.49534 0.56631,-4.97532 1.02422,-7.43624 0.51129,-2.64421 1.16693,-5.26038 1.95802,-7.83467 0.77002,-2.42593 1.62853,-4.82586 2.64894,-7.15822 1.19892,-2.81909 2.60382,-5.54575 4.14806,-8.19071 1.39295,-2.34832 2.91035,-4.62479 4.55011,-6.80785 1.84973,-2.43209 3.82465,-4.76994 5.96657,-6.95048 1.76417,-1.83575 3.65618,-3.54473 5.60172,-5.18625 2.12085,-1.74733 4.32782,-3.39302 6.62854,-4.89634 2.03005,-1.32287 4.11753,-2.55908 6.27145,-3.66903 2.69375,-1.40506 5.47758,-2.63262 8.32662,-3.68763 2.27033,-0.84615 4.58889,-1.5606 6.9324,-2.17609 2.61868,-0.67919 5.27752,-1.20149 7.95352,-1.5968 2.21836,-0.3115 4.44806,-0.50834 6.68331,-0.64854 0.5491,-0.0135 1.09833,-0.0273 1.64744,-0.0408 1.16674,-0.0377 2.33419,-0.0452 3.5016,-0.0232 8.17184,0.15379 16.32567,1.7571 23.97683,4.62607 7.71268,2.90526 14.97225,7.15921 21.26072,12.48089 8.78764,7.41795 15.72844,16.89855 20.14554,27.51409 2.9153,6.97862 4.73384,14.49191 5.34386,22.04723 0.28637,3.46678 0.29782,6.96718 0.0729,10.45207 -0.17865,2.9652 -0.55794,5.91622 -1.10484,8.83564 -0.49022,2.6492 -1.1593,5.26262 -1.9265,7.84448 -0.76373,2.40245 -1.60563,4.78135 -2.60036,7.09828 -0.97485,2.27152 -2.04174,4.50511 -3.24786,6.66316 -1.44642,2.644 -3.07654,5.18423 -4.84518,7.62382 -0.97735,1.34024 -2.01329,2.63672 -3.07837,3.90881 l 21.11396,13.00437 c 0.54604,-0.70842 1.1143,-1.39976 1.64124,-2.12235 2.39727,-3.30672 4.60703,-6.74995 6.56756,-10.33374 1.63483,-2.9251 3.08097,-5.95259 4.40232,-9.03149 1.34827,-3.14043 2.48914,-6.36423 3.52433,-9.6206 1.03988,-3.49956 1.94675,-7.0421 2.61121,-10.63294 0.74129,-3.95708 1.25542,-7.9569 1.49758,-11.97601 0.30491,-4.72357 0.28993,-9.46863 -0.0982,-14.16761 -0.82686,-10.24076 -3.29248,-20.42438 -7.24401,-29.88345 -5.98707,-14.38869 -15.39476,-27.2393 -27.30582,-37.29385 -8.5236,-7.21321 -18.36332,-12.97891 -28.81737,-16.9168 -10.37066,-3.8887 -21.42236,-6.06145 -32.49879,-6.2699 z" /><path
         id="rect3-0-1-6-3-1"
         style="display:inline;fill:#ad5821;fill-opacity:1;stroke:none;stroke-width:0.264583"
         d="m 367.50493,670.8501 c -0.85425,0 -1.32594,0.013 -1.61075,0.0961 -0.1424,0.0416 -0.2382,0.10072 -0.31161,0.18448 -0.0734,0.0838 -0.12445,0.19205 -0.17777,0.33228 -0.13221,0.34773 -0.45995,2.01122 -0.99012,5.0276 -0.53016,3.01638 -1.26275,7.38568 -2.204,13.14494 -0.43998,2.69213 -0.86439,5.20848 -0.94309,5.5919 l -0.14314,0.69712 3.3693,0.0341 c 1.85308,0.0187 3.42836,0.0931 3.50056,0.16536 0.0661,0.0661 0.94746,0.0319 1.83503,-0.0388 0.88757,-0.0706 1.78139,-0.17758 1.87327,-0.25631 0.0404,-0.0346 -0.0799,-1.63609 -0.26252,-3.69848 -0.18259,-2.0624 -0.42745,-4.58571 -0.63717,-6.46369 -0.0569,-0.50932 -0.35177,-3.90263 -0.65577,-7.54063 -0.30401,-3.63801 -0.60284,-6.76341 -0.66404,-6.94531 -0.0187,-0.0557 -0.0731,-0.10428 -0.16382,-0.14573 -0.0907,-0.0414 -0.21792,-0.0759 -0.38188,-0.10335 -0.32794,-0.0548 -0.80357,-0.0816 -1.43248,-0.0816 z" /><path
         id="rect3-2-8-5-9-7-7"
         style="display:inline;fill:#f29337;fill-opacity:1;stroke:none;stroke-width:0.179499"
         d="m 367.17906,676.73636 c -0.52073,0 -0.80826,0.01 -0.98187,0.0726 -0.0868,0.0314 -0.1452,0.0761 -0.18995,0.13929 -0.0447,0.0633 -0.0759,0.14501 -0.10836,0.25089 -0.0806,0.26255 -0.28037,1.51857 -0.60355,3.79608 -0.32317,2.27751 -0.76974,5.57654 -1.3435,9.92505 -0.2682,2.03269 -0.52691,3.93265 -0.57488,4.22215 l -0.0872,0.52636 2.05383,0.0257 c 1.12959,0.0141 2.08984,0.0703 2.13385,0.12485 0.0403,0.0499 0.57755,0.0241 1.11859,-0.0293 0.54103,-0.0533 1.08588,-0.13408 1.14189,-0.19353 0.0246,-0.0261 -0.0487,-1.23532 -0.16002,-2.79253 -0.11131,-1.55721 -0.26057,-3.46242 -0.38841,-4.88039 -0.0347,-0.38456 -0.21443,-2.94667 -0.39974,-5.69353 -0.18531,-2.74687 -0.36747,-5.1067 -0.40478,-5.24404 -0.0114,-0.0421 -0.0446,-0.0787 -0.0999,-0.11004 -0.0553,-0.0312 -0.13284,-0.0573 -0.23278,-0.078 -0.1999,-0.0414 -0.48984,-0.0616 -0.8732,-0.0616 z" /><path
         id="path17-6-1-4-1-3"
         style="display:inline;fill:#501616;fill-opacity:1;stroke:none;stroke-width:0.264583"
         d="m 396.63649,638.52494 c -0.0827,0.0169 -0.33343,0.67745 -0.64182,1.63815 -0.3084,0.96069 -0.67448,2.2215 -0.98754,3.43751 -0.18459,0.717 -0.32649,1.26112 -0.46664,1.70636 -0.14015,0.44524 -0.27872,0.79174 -0.4563,1.11362 -0.17758,0.32189 -0.39404,0.61891 -0.69091,0.96584 -0.29688,0.34692 -0.67399,0.74363 -1.17202,1.264 -0.50878,0.5316 -0.99222,1.11641 -1.3994,1.68415 -0.40719,0.56772 -0.73813,1.11836 -0.9431,1.5818 -0.31403,0.71009 -0.66509,1.64375 -1.07073,2.86236 -0.40565,1.21862 -0.86597,2.72208 -1.39837,4.5713 -1.06479,3.69844 -2.41814,8.78028 -4.20077,15.7334 -0.6529,2.54662 -1.76757,6.89242 -2.47686,9.6573 -0.60158,2.34505 -1.19684,4.784 -1.64176,6.69727 -0.44491,1.91327 -0.73949,3.30086 -0.73949,3.54293 0,0.0676 -0.006,0.11895 0.0207,0.15038 0.0264,0.0314 0.085,0.0426 0.21446,0.031 0.25885,-0.0233 0.80028,-0.13927 1.93063,-0.37619 l 6.38669,-1.71101 c 0.68567,-0.16952 1.06872,-0.27481 1.4609,-0.40204 0.39218,-0.12724 0.79349,-0.27643 1.51567,-0.53382 1.44434,-0.51479 3.32399,-1.17518 4.17649,-1.46761 0.57531,-0.19734 1.36016,-0.52645 2.27479,-0.94671 0.91464,-0.42026 1.95881,-0.93194 3.05356,-1.49345 1.09475,-0.56152 2.24021,-1.17309 3.35587,-1.79421 1.11566,-0.62111 2.20177,-1.25148 3.17913,-1.85053 1.72193,-1.0554 3.32016,-2.08901 4.824,-3.12384 1.50384,-1.03483 2.91301,-2.07104 4.25814,-3.13211 1.34513,-1.06106 2.6258,-2.14683 3.8716,-3.28094 1.24579,-1.1341 2.45699,-2.31638 3.66282,-3.57032 1.61347,-1.68169 3.18107,-3.42415 4.71703,-5.18986 1.53595,-1.76572 3.04029,-3.55472 4.52788,-5.32888 -0.20257,-0.19632 -13.20989,-8.60688 -19.22208,-12.4287 -3.17083,-2.01562 -7.45214,-4.75407 -9.51363,-6.08541 -2.00392,-1.29416 -3.56477,-2.28339 -4.64519,-2.94453 -1.08043,-0.66114 -1.68044,-0.9942 -1.76372,-0.9772 z" /><path
         id="path16-9-3-4-7-8"
         style="display:inline;fill:#296379;fill-opacity:1;stroke:none;stroke-width:0.264583"
         d="m 396.63649,638.52494 c 0.0833,-0.017 0.68329,0.31606 1.76372,0.9772 1.08042,0.66114 2.64127,1.65038 4.64519,2.94453 2.06149,1.33134 6.3428,4.06979 9.51363,6.08541 6.01219,3.82182 19.01951,12.23238 19.22208,12.4287 -1.48759,1.77416 -2.99193,3.56316 -4.52788,5.32888 -1.53596,1.76571 -3.10356,3.50817 -4.71703,5.18986 -1.20583,1.25394 -2.41703,2.43622 -3.66282,3.57032 -1.2458,1.13411 -2.52647,2.21988 -3.8716,3.28094 -1.34513,1.06107 -2.7543,2.09728 -4.25814,3.13211 -1.50384,1.03483 -3.10207,2.06844 -4.824,3.12384 -0.97736,0.59905 -2.06347,1.22942 -3.17913,1.85053 -1.11566,0.62112 -2.26112,1.23269 -3.35587,1.79421 -1.09475,0.56151 -2.13892,1.0732 -3.05356,1.49345 -0.91463,0.42026 -1.69948,0.74937 -2.27479,0.94671 -0.8525,0.29244 -2.73215,0.95282 -4.17649,1.46761 -0.72218,0.25739 -1.12349,0.40658 -1.51567,0.53382 -0.39218,0.12724 -0.77523,0.23252 -1.4609,0.40204 l -6.38669,1.71101 c -1.13035,0.23693 -1.67178,0.35293 -1.93063,0.3762 -0.12942,0.0116 -0.18803,4.3e-4 -0.21446,-0.031 -0.0264,-0.0314 -0.0207,-0.0828 -0.0207,-0.15038 0,-0.24208 0.29458,-1.62967 0.73949,-3.54294 0.44492,-1.91326 1.04018,-4.35221 1.64176,-6.69726 0.70929,-2.76489 1.82396,-7.11068 2.47686,-9.6573 1.78263,-6.95313 3.13598,-12.03497 4.20077,-15.7334 0.5324,-1.84922 0.99272,-3.35268 1.39837,-4.5713 0.40564,-1.21862 0.7567,-2.15228 1.07073,-2.86236 0.20497,-0.46345 0.53591,-1.01409 0.9431,-1.58181 0.40718,-0.56773 0.89062,-1.15254 1.3994,-1.68414 0.49803,-0.52037 0.87514,-0.91708 1.17202,-1.264 0.29687,-0.34693 0.51333,-0.64395 0.69091,-0.96584 0.17758,-0.32188 0.31615,-0.66838 0.4563,-1.11362 0.14015,-0.44524 0.28205,-0.98936 0.46664,-1.70636 0.31306,-1.21601 0.67914,-2.47682 0.98754,-3.43751 0.30839,-0.9607 0.5591,-1.6213 0.64182,-1.63815 z" /><path
         id="path16-2-7-0-3-5-6"
         style="display:inline;fill:#3e90b6;fill-opacity:1;stroke:none;stroke-width:0.187889"
         d="m 398.19783,644.62623 c 0.0542,-0.0132 0.44503,0.24471 1.14872,0.75661 0.70369,0.5119 1.72028,1.27784 3.02544,2.27986 1.34267,1.03082 4.13111,3.15111 6.19629,4.71174 3.91578,2.95912 12.38753,9.47115 12.51947,9.62316 -0.96888,1.37367 -1.94866,2.75884 -2.94904,4.12598 -1.00038,1.36714 -2.02137,2.71627 -3.07223,4.01835 -0.78537,0.97088 -1.57423,1.88629 -2.38562,2.76438 -0.8114,0.87811 -1.64551,1.71879 -2.5216,2.54033 -0.87609,0.82156 -1.79389,1.62386 -2.77335,2.4251 -0.97946,0.80123 -2.0204,1.60153 -3.14191,2.41869 -0.63656,0.46383 -1.34395,0.9519 -2.07058,1.43281 -0.72664,0.48091 -1.47269,0.95443 -2.1857,1.3892 -0.71302,0.43476 -1.3931,0.83094 -1.98881,1.15633 -0.5957,0.32539 -1.10688,0.58021 -1.48158,0.73301 -0.55524,0.22642 -1.77947,0.73774 -2.72018,1.13632 -0.47036,0.19929 -0.73173,0.3148 -0.98716,0.41332 -0.25543,0.0985 -0.50492,0.18003 -0.9515,0.31129 l -4.15969,1.32478 c -0.7362,0.18345 -1.08884,0.27326 -1.25743,0.29128 -0.0843,0.009 -0.12247,3.3e-4 -0.13968,-0.024 -0.0172,-0.0243 -0.0135,-0.0641 -0.0135,-0.11644 0,-0.18743 0.19186,-1.2618 0.48163,-2.74318 0.28978,-1.48138 0.67748,-3.36978 1.06929,-5.18548 0.46197,-2.14077 1.18796,-5.50558 1.6132,-7.47735 1.16103,-5.38359 2.04248,-9.3183 2.73598,-12.18188 0.34676,-1.43179 0.64657,-2.59587 0.91077,-3.53941 0.2642,-0.94354 0.49285,-1.66644 0.69738,-2.21624 0.13349,-0.35883 0.34904,-0.78518 0.61424,-1.22474 0.2652,-0.43958 0.58007,-0.89238 0.91144,-1.30398 0.32437,-0.40291 0.56999,-0.71007 0.76335,-0.97868 0.19335,-0.26861 0.33433,-0.49859 0.44999,-0.74782 0.11566,-0.24922 0.20591,-0.5175 0.29719,-0.86224 0.0913,-0.34473 0.1837,-0.76603 0.30393,-1.32118 0.20389,-0.94152 0.44232,-1.91772 0.64319,-2.66155 0.20085,-0.74384 0.36414,-1.25533 0.41802,-1.26837 z" /><path
         id="path15-5-3-6-0-7"
         style="display:inline;fill:#26647b;fill-opacity:1;stroke:none;stroke-width:0.264583"
         d="m 339.94486,638.33684 -1.2361,0.88212 c -0.67983,0.48505 -2.25087,1.47899 -3.49126,2.20865 -1.24041,0.72965 -3.22899,1.96314 -4.41885,2.74092 -1.18986,0.77778 -3.4181,2.18778 -4.95215,3.13365 -1.53407,0.94589 -3.89882,2.43418 -5.25498,3.3073 -1.35614,0.87313 -4.05089,2.59954 -5.98827,3.83645 -1.93736,1.23693 -4.43065,2.87215 -5.54023,3.63389 -1.10958,0.76173 -2.48088,1.69692 -3.04736,2.07791 -0.39569,0.26611 -0.63196,0.45274 -0.7338,0.59531 -0.0509,0.0713 -0.0684,0.13136 -0.0553,0.185 0.0131,0.0537 0.0568,0.10091 0.12764,0.14573 0.10131,0.0642 0.17018,0.12288 0.19998,0.16588 0.0298,0.043 0.0206,0.0703 -0.0357,0.0713 -0.0715,10e-4 0.0842,0.26582 0.40152,0.71003 0.31737,0.44422 0.79643,1.06814 1.37046,1.78904 1.14806,1.4418 2.67725,3.27113 4.05867,4.82348 1.16324,1.30716 2.29627,2.52875 3.42821,3.69124 1.13195,1.1625 2.26273,2.26564 3.42047,3.33624 1.15773,1.0706 2.34263,2.10836 3.58324,3.13986 1.24061,1.03149 2.53702,2.05697 3.91759,3.10213 0.66996,0.50719 1.3847,1.01796 2.13475,1.52756 0.75006,0.5096 1.53558,1.01778 2.3456,1.51928 1.62003,1.00301 3.33974,1.97962 5.07876,2.88717 1.73901,0.90754 3.49713,1.74625 5.194,2.47426 0.84843,0.36401 1.68156,0.7002 2.48925,1.00356 0.80769,0.30336 1.59001,0.57395 2.33681,0.80615 1.23693,0.38461 2.74401,0.85489 3.34915,1.0449 1.12899,0.29061 1.67545,0.39348 2.86184,0.75034 l 1.98747,0.48524 c 2.17508,0.53106 2.92626,0.70303 3.27577,0.74983 0.063,0.008 0.0994,-0.0511 0.10697,-0.15348 0.008,-0.10239 -0.0135,-0.24764 -0.0651,-0.41134 -0.10311,-0.32742 -0.4114,-1.66688 -0.68471,-2.97657 -0.27337,-1.30995 -0.80503,-3.58786 -1.52136,-6.53242 -0.71632,-2.94455 -1.61732,-6.55575 -2.63033,-10.5332 -0.78033,-3.06387 -1.41801,-5.62683 -1.93063,-7.76284 -0.51261,-2.136 -0.90016,-3.84507 -1.1808,-5.20175 -0.14937,-0.72207 -0.37755,-1.65607 -0.64493,-2.6696 -0.26738,-1.01353 -0.57399,-2.10671 -0.88108,-3.14658 -0.30709,-1.03986 -0.61464,-2.02664 -0.88315,-2.82773 -0.26851,-0.8011 -0.49795,-1.41638 -0.64957,-1.71359 -0.14356,-0.2814 -0.46974,-0.7229 -0.87954,-1.20768 -0.40979,-0.48478 -0.9032,-1.01285 -1.38131,-1.4671 -0.9562,-0.90848 -1.84555,-1.85161 -1.97662,-2.09547 -0.10864,-0.20214 -0.36103,-1.27346 -0.63924,-2.6355 -0.2782,-1.36204 -0.58222,-3.01482 -0.79375,-4.3801 z" /><path
         id="path15-4-7-8-7-0-0"
         style="display:inline;fill:#3d91b5;fill-opacity:1;stroke:none;stroke-width:0.18093"
         d="m 337.39274,648.1016 -0.79886,0.63827 c -0.43936,0.35097 -1.45468,1.07014 -2.25632,1.5981 -0.80165,0.52795 -2.08682,1.42046 -2.8558,1.98324 -0.76897,0.56276 -2.20903,1.58299 -3.20045,2.26739 -0.99143,0.68442 -2.51972,1.76129 -3.39617,2.39305 -0.87644,0.63176 -2.61799,1.88093 -3.87008,2.77592 -1.25206,0.895 -2.86342,2.07818 -3.58051,2.62934 -0.7171,0.55117 -1.60334,1.22784 -1.96944,1.50351 -0.25573,0.19254 -0.40842,0.32758 -0.47424,0.43074 -0.0329,0.0516 -0.0442,0.095 -0.0357,0.13386 0.008,0.0389 0.0367,0.0731 0.0825,0.10544 0.0655,0.0465 0.10998,0.0889 0.12924,0.12003 0.0193,0.0312 0.0133,0.0508 -0.0231,0.0516 -0.0462,7.3e-4 0.0544,0.19235 0.2595,0.51375 0.2051,0.32143 0.51471,0.77288 0.88569,1.29449 0.74196,1.04324 1.73024,2.36688 2.62302,3.4901 0.75178,0.94581 1.48403,1.82972 2.21557,2.67085 0.73156,0.84114 1.46235,1.63933 2.21057,2.41398 0.74821,0.77466 1.51399,1.52554 2.31576,2.2719 0.80178,0.74634 1.63962,1.48834 2.53185,2.24458 0.43298,0.36699 0.8949,0.73657 1.37964,1.10529 0.48474,0.36873 0.99241,0.73644 1.5159,1.0993 1.04699,0.72574 2.1584,1.43238 3.28228,2.08905 1.12388,0.65667 2.26012,1.26353 3.35676,1.79029 0.54832,0.26338 1.08675,0.50664 1.60874,0.72615 0.522,0.21949 1.02759,0.41528 1.51023,0.5833 0.7994,0.27828 1.77339,0.61856 2.16448,0.75605 0.72963,0.21027 1.0828,0.2847 1.84953,0.54292 l 1.28446,0.3511 c 1.4057,0.38426 1.89117,0.50869 2.11705,0.54255 0.0407,0.005 0.0642,-0.037 0.0691,-0.11105 0.005,-0.0741 -0.009,-0.17919 -0.0421,-0.29763 -0.0666,-0.23692 -0.26588,-1.2061 -0.44251,-2.15375 -0.17667,-0.94783 -0.52027,-2.59604 -0.98322,-4.72662 -0.46294,-2.13058 -1.04524,-4.74351 -1.69992,-7.62145 -0.50431,-2.21691 -0.91643,-4.07138 -1.24772,-5.61692 -0.33129,-1.54553 -0.58175,-2.78215 -0.76312,-3.7638 -0.0965,-0.52246 -0.244,-1.19827 -0.4168,-1.93162 -0.17281,-0.73336 -0.37096,-1.52435 -0.56943,-2.27676 -0.19846,-0.7524 -0.39722,-1.4664 -0.57075,-2.04604 -0.17354,-0.57965 -0.32182,-1.02484 -0.41981,-1.23989 -0.0928,-0.20362 -0.30358,-0.52306 -0.56842,-0.87383 -0.26484,-0.35078 -0.58372,-0.73287 -0.89271,-1.06155 -0.61797,-0.65734 -1.19273,-1.33976 -1.27744,-1.5162 -0.0702,-0.14627 -0.23333,-0.92144 -0.41313,-1.90696 -0.17979,-0.98552 -0.37627,-2.18141 -0.51298,-3.16928 z" /><path
         id="path11-0-2-2-4-7"
         style="display:inline;fill:#eb9878;fill-opacity:1;stroke:none;stroke-width:0.264583"
         d="m 332.57787,590.93251 -0.8599,0.4377 c -0.4226,0.21521 -0.84588,0.46567 -1.25315,0.73794 -0.40728,0.27227 -0.79838,0.56628 -1.15704,0.86764 -0.35865,0.30137 -0.68496,0.61013 -0.9617,0.91261 -0.27673,0.30247 -0.50406,0.59873 -0.66559,0.87436 -0.16446,0.28063 -0.30503,0.56999 -0.42168,0.86506 -0.11665,0.29508 -0.20967,0.59554 -0.27905,0.89815 -0.0694,0.3026 -0.1148,0.60731 -0.13746,0.91053 -0.0227,0.30323 -0.0225,0.60534 10e-4,0.90226 0.0235,0.29694 0.0704,0.58908 0.13953,0.87282 0.0691,0.28374 0.16071,0.55905 0.27492,0.82269 0.11421,0.26364 0.25054,0.51526 0.40928,0.75189 0.15873,0.23663 0.33989,0.45823 0.5426,0.66094 0.27302,0.27302 0.52487,0.47883 0.77153,0.61805 0.24665,0.13923 0.48787,0.21188 0.73949,0.21808 0.25162,0.006 0.51358,-0.0538 0.8015,-0.17984 0.28792,-0.12605 0.60202,-0.31813 0.95756,-0.57567 l 1.09813,-0.7953 v -4.89996 z" /><path
         id="path10-7-7-4-8-3"
         style="display:inline;fill:#501616;fill-opacity:1;stroke:none;stroke-width:0.264583"
         d="m 404.27995,590.87773 -0.003,3.80441 c -0.002,2.09249 -0.0758,4.24577 -0.16485,4.78472 -0.0351,0.21256 -0.056,0.38685 -0.0568,0.5395 -8.1e-4,0.15265 0.0185,0.2834 0.0641,0.4098 0.0456,0.12639 0.11751,0.2481 0.22169,0.38189 0.10417,0.13378 0.24065,0.27991 0.41548,0.45475 0.23168,0.23168 0.48487,0.4145 0.74982,0.54777 0.26496,0.13327 0.5415,0.21694 0.82062,0.2496 0.27913,0.0327 0.5609,0.0144 0.8351,-0.0558 0.27419,-0.0702 0.54099,-0.1922 0.79116,-0.36742 0.1694,-0.11865 0.36511,-0.32614 0.54364,-0.56431 0.17852,-0.23817 0.33986,-0.50701 0.44131,-0.74983 0.12542,-0.30015 0.21663,-0.61191 0.27492,-0.93224 0.0583,-0.32032 0.0838,-0.64944 0.077,-0.98443 -0.007,-0.335 -0.0455,-0.67592 -0.11524,-1.0201 -0.0698,-0.34417 -0.17058,-0.69135 -0.30127,-1.03921 -0.13069,-0.34786 -0.29155,-0.69627 -0.48111,-1.04231 -0.18956,-0.34605 -0.40787,-0.69014 -0.65422,-1.02888 -0.24636,-0.33873 -0.52057,-0.67244 -0.82166,-0.99838 -0.30109,-0.32594 -0.62912,-0.64372 -0.98288,-0.95136 z" /><path
         id="path9-0-1-0-0-6"
         style="display:inline;fill:#ea9e7a;fill-opacity:1;stroke:none;stroke-width:0.264583"
         d="m 404.27995,590.87773 1.65365,1.43816 c 0.35376,0.30764 0.68179,0.62542 0.98288,0.95136 0.30109,0.32594 0.5753,0.65965 0.82166,0.99838 0.24635,0.33874 0.46466,0.68283 0.65422,1.02888 0.18956,0.34604 0.35042,0.69445 0.48111,1.04231 0.13069,0.34786 0.23151,0.69504 0.30127,1.03921 0.0698,0.34418 0.10847,0.6851 0.11524,1.0201 0.007,0.33499 -0.0187,0.66411 -0.077,0.98443 -0.0583,0.32033 -0.1495,0.63209 -0.27492,0.93224 -0.10145,0.24282 -0.26279,0.51166 -0.44131,0.74983 -0.17853,0.23817 -0.37424,0.44566 -0.54364,0.56432 -0.25017,0.17521 -0.51697,0.29723 -0.79116,0.36742 -0.2742,0.0702 -0.55597,0.0885 -0.8351,0.0558 -0.27912,-0.0327 -0.55566,-0.11633 -0.82062,-0.2496 -0.26495,-0.13327 -0.51814,-0.31609 -0.74982,-0.54777 -0.17483,-0.17484 -0.31131,-0.32097 -0.41548,-0.45475 -0.10418,-0.13379 -0.17606,-0.2555 -0.22169,-0.38189 -0.0456,-0.1264 -0.0649,-0.25715 -0.0641,-0.4098 8.1e-4,-0.15265 0.0217,-0.32694 0.0568,-0.5395 0.0891,-0.53895 0.16285,-2.69223 0.16485,-4.78472 z" /><path
         id="path8-3-3-5-5-6"
         style="display:inline;fill:#eb9878;fill-opacity:1;stroke:none;stroke-width:0.264583"
         d="m 343.24595,573.2447 c -0.0611,0.0226 -0.0847,0.0885 -0.0847,0.1912 0,0.13819 -0.26878,0.77007 -0.70177,1.6769 -0.43298,0.90684 -1.03018,2.08864 -1.68723,3.32641 -0.89924,1.694 -1.55828,2.86925 -2.03812,3.90209 -0.23992,0.51642 -0.43525,0.99701 -0.59324,1.48932 -0.158,0.4923 -0.27865,0.99626 -0.37001,1.55856 -0.0914,0.56229 -0.15326,1.18305 -0.19327,1.90944 -0.04,0.7264 -0.0581,1.55839 -0.062,2.543 -0.008,1.96922 0.0411,4.54902 0.0858,8.11577 0.0723,5.77096 0.1184,8.84621 0.21911,10.77661 0.0504,0.96519 0.1143,1.64419 0.20206,2.23088 0.0878,0.58668 0.19933,1.08098 0.34468,1.67689 0.16859,0.69122 0.40789,1.49457 0.65732,2.2319 0.24944,0.73734 0.509,1.40866 0.71882,1.83607 0.39043,0.82143 0.60998,1.28685 0.81391,1.64279 0.20392,0.35595 0.39223,0.60245 0.72088,0.98599 0.37685,0.43978 1.22139,1.3827 2.14871,2.34714 0.46365,0.48222 0.94825,0.9698 1.40508,1.4025 0.45683,0.43269 0.88602,0.81061 1.23972,1.07332 0.46823,0.36101 0.82066,0.61949 1.13636,0.83095 0.3157,0.21147 0.59467,0.37593 0.91623,0.54933 0.7032,0.37919 1.9359,1.03765 3.21117,1.67224 0.63763,0.3173 1.2859,0.62879 1.88412,0.89607 0.59822,0.26729 1.14618,0.49064 1.58337,0.63201 0.70312,0.22735 1.42269,0.43621 2.15439,0.62632 0.7317,0.1901 1.47532,0.36156 2.22777,0.51366 0.75245,0.1521 1.51354,0.28455 2.27893,0.39791 0.76539,0.11335 1.5353,0.20727 2.3058,0.28112 0.7705,0.0738 1.54162,0.12763 2.30942,0.16123 0.7678,0.0336 1.53251,0.0472 2.28978,0.0398 0.75728,-0.007 1.50692,-0.0356 2.24586,-0.0847 0.73894,-0.0491 1.46694,-0.11919 2.17971,-0.21084 0.65484,-0.0842 2.38125,-0.43113 3.83646,-0.77101 1.2317,-0.28768 2.40888,-0.60682 3.53209,-0.95808 1.1232,-0.35127 2.19243,-0.73465 3.2091,-1.15084 1.01668,-0.41619 1.98075,-0.86528 2.89285,-1.34772 0.9121,-0.48244 1.77226,-0.9982 2.58175,-1.54823 0.8095,-0.55003 1.56802,-1.13443 2.27687,-1.75338 0.70884,-0.61895 1.36802,-1.27243 1.97817,-1.96163 0.61016,-0.68921 1.17123,-1.41428 1.68465,-2.17507 0.51343,-0.76078 0.97919,-1.55736 1.39785,-2.39106 0.1922,-0.38274 0.43928,-1.00093 0.68265,-1.68879 0.24336,-0.68786 0.48302,-1.44538 0.6599,-2.10633 0.32074,-1.19849 0.5721,-2.23405 0.76998,-3.30264 0.19788,-1.0686 0.34214,-2.1706 0.44855,-3.50211 0.10642,-1.33152 0.17485,-2.89255 0.22118,-4.87981 0.0463,-1.98726 0.0707,-4.40041 0.0884,-7.43623 l 0.0656,-11.34297 -1.5875,0.15399 c -0.87312,0.0847 -3.13532,0.33376 -5.02709,0.55346 -1.44551,0.16787 -2.87379,0.30655 -4.28552,0.41599 -1.41174,0.10944 -2.80679,0.1894 -4.18683,0.2403 -1.38004,0.0509 -2.74493,0.0723 -4.09536,0.0646 -1.35042,-0.008 -2.68669,-0.0446 -4.00957,-0.1111 -1.32288,-0.0665 -2.63257,-0.1625 -3.92999,-0.28784 -1.29743,-0.12534 -2.58257,-0.28027 -3.85662,-0.46457 -1.27404,-0.1843 -2.53669,-0.39795 -3.78943,-0.64131 -1.25274,-0.24335 -2.49545,-0.51603 -3.72897,-0.81855 -1.2677,-0.3109 -2.6297,-0.7272 -4.01836,-1.21853 -1.38866,-0.49134 -2.80411,-1.05806 -4.17855,-1.66967 -1.37445,-0.6116 -2.70804,-1.26822 -3.9331,-1.93993 -0.61253,-0.33586 -1.19786,-0.67532 -1.7477,-1.01492 -0.54983,-0.33961 -1.06402,-0.6791 -1.53427,-1.01493 -0.62873,-0.449 -1.07415,-0.7545 -1.38544,-0.93896 -0.31129,-0.18446 -0.48846,-0.24789 -0.58033,-0.21394 z" /><path
         id="path8-5-7-7-7-9-1"
         style="display:inline;fill:#fee0be;fill-opacity:1;stroke:none;stroke-width:0.233881"
         d="m 345.68936,578.36248 c -0.0554,0.0195 -0.0768,0.0763 -0.0768,0.16479 0,0.1191 -0.24367,0.66371 -0.63622,1.44529 -0.39255,0.78159 -0.93397,1.80017 -1.52966,2.86698 -0.81525,1.46003 -1.41274,2.47296 -1.84777,3.36315 -0.21751,0.44509 -0.39459,0.85931 -0.53783,1.28362 -0.14324,0.4243 -0.25262,0.85866 -0.33545,1.3433 -0.0829,0.48463 -0.13895,1.01965 -0.17522,1.64571 -0.0363,0.62607 -0.0527,1.34315 -0.0562,2.19177 -0.007,1.69724 0.0373,3.92073 0.0778,6.99486 0.0656,4.97389 0.10734,7.6244 0.19864,9.28818 0.0457,0.83188 0.10362,1.4171 0.18319,1.92276 0.0796,0.50565 0.18072,0.93168 0.31249,1.44528 0.15285,0.59575 0.3698,1.28815 0.59593,1.92364 0.22614,0.6355 0.46146,1.21409 0.65169,1.58248 0.35396,0.70797 0.55301,1.10911 0.73789,1.41588 0.18488,0.30679 0.3556,0.51925 0.65356,0.84982 0.34165,0.37903 1.10731,1.19172 1.94803,2.02296 0.42034,0.41561 0.85968,0.83586 1.27385,1.20879 0.41416,0.37293 0.80327,0.69866 1.12393,0.92508 0.4245,0.31114 0.74402,0.53393 1.03023,0.71618 0.28622,0.18226 0.53914,0.32401 0.83066,0.47345 0.63753,0.32683 1.7551,0.89434 2.91127,1.44128 0.57807,0.27348 1.1658,0.54194 1.70815,0.77231 0.54235,0.23037 1.03913,0.42287 1.43549,0.54472 0.63745,0.19595 1.28982,0.37596 1.95318,0.53982 0.66336,0.16384 1.33753,0.31161 2.01971,0.44271 0.68217,0.13109 1.37218,0.24525 2.06609,0.34295 0.6939,0.0977 1.39191,0.17865 2.09044,0.24229 0.69854,0.0636 1.39765,0.11001 2.09374,0.13896 0.69609,0.029 1.38938,0.0407 2.07592,0.0344 0.68656,-0.006 1.36618,-0.0307 2.03611,-0.073 0.66993,-0.0423 1.32994,-0.1027 1.97614,-0.18172 0.59368,-0.0725 2.15885,-0.37158 3.47815,-0.66452 1.11666,-0.24795 2.18391,-0.523 3.20221,-0.82575 1.0183,-0.30275 1.98767,-0.63318 2.90939,-0.99189 0.92173,-0.35871 1.79576,-0.74577 2.62267,-1.16158 0.82692,-0.41581 1.60674,-0.86033 2.34063,-1.33439 0.7339,-0.47406 1.42158,-0.97775 2.06422,-1.51121 0.64265,-0.53346 1.24026,-1.09669 1.79342,-1.6907 0.55317,-0.59402 1.06184,-1.21894 1.52731,-1.87466 0.46548,-0.6557 0.88774,-1.34226 1.2673,-2.06081 0.17425,-0.32988 0.39825,-0.86268 0.6189,-1.45554 0.22063,-0.59285 0.4379,-1.24575 0.59826,-1.81541 0.29078,-1.03296 0.51866,-1.92549 0.69806,-2.84649 0.17941,-0.92101 0.3102,-1.87081 0.40666,-3.01841 0.0964,-1.14762 0.15852,-2.49304 0.20053,-4.20583 0.042,-1.71279 0.0641,-3.79264 0.0802,-6.40917 l 0.0595,-9.77632 -1.43924,0.13272 c -0.79157,0.073 -2.8425,0.28767 -4.55759,0.47702 -1.31049,0.14469 -2.60538,0.26421 -3.88526,0.35854 -1.27989,0.0943 -2.54466,0.16324 -3.79581,0.20711 -1.25115,0.0439 -2.48856,0.0623 -3.71288,0.0557 -1.22429,-0.007 -2.43576,-0.0384 -3.63509,-0.0958 -1.19933,-0.0573 -2.3867,-0.14006 -3.56295,-0.24809 -1.17626,-0.10809 -2.34138,-0.24162 -3.49644,-0.40046 -1.15505,-0.15885 -2.29977,-0.34299 -3.43551,-0.55274 -1.13574,-0.20974 -2.26239,-0.44476 -3.38071,-0.70549 -1.1493,-0.26796 -2.3841,-0.62677 -3.64306,-1.05023 -1.25905,-0.42351 -2.54231,-0.91196 -3.78838,-1.4391 -1.24608,-0.52713 -2.45512,-1.09305 -3.56577,-1.67199 -0.55532,-0.28947 -1.08598,-0.58205 -1.58447,-0.87474 -0.49848,-0.29271 -0.96464,-0.58531 -1.39098,-0.87475 -0.57001,-0.38699 -0.97383,-0.6503 -1.25604,-0.80928 -0.28222,-0.15898 -0.44284,-0.21365 -0.52613,-0.18439 z" /><path
         id="path6-8-4-8-5-0"
         style="display:inline;fill:#af511d;fill-opacity:1;stroke:none;stroke-width:0.264583"
         d="m 338.32067,546.79722 c -0.0827,-0.0415 -0.26995,-0.01 -0.60617,0.0718 -0.34415,0.0837 -0.73997,0.24044 -1.16271,0.45372 -0.42275,0.21327 -0.87264,0.48284 -1.32499,0.7922 -0.45235,0.30936 -0.90699,0.65849 -1.33997,1.03042 -0.43298,0.37194 -0.84409,0.76689 -1.20871,1.16789 -0.40553,0.44598 -0.78575,0.92941 -1.14722,1.46348 -0.36147,0.53407 -0.70422,1.11875 -1.03456,1.7663 -0.33034,0.64754 -0.64853,1.35816 -0.96066,2.14457 -0.31213,0.78642 -0.61817,1.64865 -0.92501,2.59933 -0.19317,0.59846 -0.36317,1.24548 -0.50953,1.93114 -0.14636,0.68567 -0.26902,1.40995 -0.36845,2.16318 -0.0994,0.75323 -0.17551,1.53512 -0.2279,2.33629 -0.0524,0.80117 -0.0811,1.62153 -0.0863,2.45101 -0.005,0.82949 0.0132,1.66814 0.0553,2.50631 0.0421,0.83818 0.1079,1.67597 0.1974,2.50321 0.0895,0.82723 0.20248,1.64401 0.33951,2.44068 0.13704,0.79667 0.29796,1.57327 0.48266,2.31975 0.17193,0.69487 0.34014,1.29889 0.51573,1.83555 0.17559,0.53665 0.35833,1.00581 0.55966,1.43092 0.20133,0.4251 0.42109,0.80611 0.67024,1.16633 0.24915,0.36023 0.52793,0.6998 0.84698,1.0418 0.43043,0.46139 0.7282,0.7247 0.93638,0.80719 0.10408,0.0412 0.18593,0.0372 0.25063,-0.01 0.0647,-0.0471 0.11221,-0.1371 0.14831,-0.2682 0.52309,-1.89969 0.95817,-3.32699 1.44229,-4.65863 0.48412,-1.33165 1.01728,-2.56765 1.73633,-4.08451 0.61441,-1.29614 1.10463,-2.44234 1.51256,-3.5512 0.40794,-1.10887 0.7336,-2.1804 1.01803,-3.32745 0.22023,-0.88811 0.47867,-1.77505 0.71779,-2.48822 0.23911,-0.71317 0.4589,-1.25258 0.60151,-1.44642 l 0.51883,-0.70487 -0.68058,-1.27951 c -0.23739,-0.44645 -0.45259,-0.94682 -0.64492,-1.48776 -0.19232,-0.54094 -0.36153,-1.12241 -0.50695,-1.73116 -0.14541,-0.60875 -0.26714,-1.24508 -0.3638,-1.89498 -0.0967,-0.64989 -0.1684,-1.31328 -0.21445,-1.97765 -0.0461,-0.66438 -0.0664,-1.3296 -0.06,-1.98179 0.006,-0.65219 0.0396,-1.29146 0.10025,-1.9048 0.0607,-0.61334 0.14877,-1.20091 0.26562,-1.74873 0.11685,-0.54782 0.26234,-1.0559 0.43718,-1.51153 0.0402,-0.10497 0.0656,-0.18645 0.0708,-0.2465 0.005,-0.06 -0.01,-0.0987 -0.0512,-0.11937 z" /><path
         id="path6-6-8-8-4-7-2"
         style="display:inline;fill:#f29130;fill-opacity:1;stroke:none;stroke-width:0.175712"
         d="m 337.42627,547.65741 c -0.0514,-0.0294 -0.16781,-0.007 -0.37681,0.0509 -0.21393,0.0594 -0.45998,0.1706 -0.72276,0.32192 -0.26279,0.15132 -0.54245,0.34258 -0.82363,0.56208 -0.28119,0.21949 -0.5638,0.4672 -0.83295,0.73109 -0.26915,0.26389 -0.5247,0.54411 -0.75135,0.82863 -0.25209,0.31643 -0.48844,0.65942 -0.71313,1.03835 -0.2247,0.37893 -0.43776,0.79376 -0.6431,1.25321 -0.20535,0.45943 -0.40314,0.96362 -0.59716,1.52159 -0.19403,0.55797 -0.38427,1.16973 -0.57501,1.84425 -0.12007,0.42461 -0.22575,0.88368 -0.31673,1.37016 -0.091,0.48649 -0.16722,1.00038 -0.22903,1.5348 -0.0618,0.53442 -0.1091,1.08918 -0.14167,1.65762 -0.0326,0.56844 -0.0504,1.15049 -0.0537,1.73901 -0.003,0.58854 0.008,1.18357 0.0344,1.77825 0.0262,0.5947 0.0671,1.18912 0.12271,1.77606 0.0556,0.58692 0.12586,1.16644 0.21104,1.73168 0.0852,0.56525 0.0285,1.17686 0.30003,1.64589 1.04058,1.79771 2.4571,2.81309 4.41755,-1.94375 0.38192,-0.91962 0.68665,-1.73286 0.94023,-2.51961 0.25358,-0.78675 0.45602,-1.54701 0.63282,-2.36085 0.1369,-0.63013 0.29755,-1.25942 0.44619,-1.76542 0.14864,-0.506 0.28526,-0.88872 0.37391,-1.02625 l 0.12878,-0.54854 -0.22933,-0.85939 c -0.14756,-0.31676 -0.28133,-0.67178 -0.40089,-1.05558 -0.11955,-0.38381 -0.22473,-0.79636 -0.31513,-1.22828 -0.0904,-0.43191 -0.16606,-0.8834 -0.22614,-1.3445 -0.0601,-0.46111 -0.10468,-0.93179 -0.13331,-1.40317 -0.0287,-0.47138 -0.0413,-0.94336 -0.0373,-1.40609 0.004,-0.46274 0.0246,-0.91631 0.0623,-1.35148 0.0377,-0.43517 0.0925,-0.85206 0.16512,-1.24074 0.0726,-0.38868 0.16307,-0.74917 0.27175,-1.07244 0.025,-0.0745 0.0408,-0.13229 0.044,-0.1749 0.003,-0.0426 -0.006,-0.07 -0.0318,-0.0847 z"
         sodipodi:nodetypes="ccssssssssscscsssssssscccssccccscccc" /><path
         id="path5-7-5-5-2-7"
         style="display:inline;fill:#af511d;fill-opacity:1;stroke:none;stroke-width:0.264583"
         d="m 366.11432,533.37375 c -1.2874,0.013 -2.56403,0.074 -3.71553,0.18242 -0.57576,0.0542 -1.11996,0.12031 -1.61903,0.19792 -0.49906,0.0776 -0.95278,0.16694 -1.34668,0.26768 -0.67808,0.17342 -1.35782,0.38357 -2.03296,0.6258 -0.67513,0.24223 -1.34565,0.51648 -2.00452,0.81856 -0.65888,0.30207 -1.30652,0.632 -1.9358,0.98495 -0.62929,0.35295 -1.24039,0.72859 -1.82676,1.12345 -0.58638,0.39485 -1.1478,0.80883 -1.67794,1.23661 -0.53014,0.42778 -1.02873,0.86963 -1.48931,1.32137 -0.46059,0.45174 -0.8832,0.91303 -1.26091,1.37976 -0.37771,0.46673 -0.71067,0.93905 -0.99219,1.4118 -0.35152,0.59031 -0.64062,1.14808 -0.87695,1.71772 -0.23632,0.56965 -0.41981,1.15118 -0.56017,1.78749 -0.14035,0.63631 -0.23765,1.3274 -0.30127,2.1177 -0.0636,0.7903 -0.0936,1.67984 -0.0997,2.71146 -0.007,1.25822 0.0331,2.39494 0.13126,3.44941 0.0981,1.05446 0.25396,2.02639 0.47646,2.95537 0.2225,0.92899 0.51186,1.81471 0.87746,2.69648 0.36561,0.88177 0.80735,1.75988 1.33481,2.6727 0.29309,0.50724 0.60085,0.99968 0.92294,1.47795 0.32208,0.47827 0.65854,0.94227 1.00975,1.39164 0.35122,0.44938 0.71712,0.88427 1.09761,1.30483 0.38049,0.42057 0.77555,0.82671 1.18546,1.21854 0.40991,0.39182 0.83435,0.76958 1.27382,1.13274 0.43948,0.36316 0.89405,0.71188 1.36323,1.04645 0.46918,0.33457 0.95307,0.6546 1.45211,0.96067 0.49903,0.30606 1.01299,0.59828 1.54202,0.87591 1.05807,0.55526 2.17642,1.05354 3.35535,1.49552 1.17893,0.44197 2.41872,0.82722 3.71967,1.15652 1.30095,0.32929 2.66297,0.60235 4.08709,0.81958 1.42412,0.21723 2.91019,0.37896 4.45864,0.48473 1.79563,0.12266 3.52464,0.19699 5.22759,0.22169 1.70295,0.0247 3.37963,-5.9e-4 5.07049,-0.0775 1.69087,-0.0769 3.39587,-0.20537 5.15524,-0.38758 1.75938,-0.18221 3.57337,-0.41783 5.48184,-0.709 0.75279,-0.11485 1.48303,-0.18745 2.20193,-0.21704 0.71891,-0.0296 1.42643,-0.0161 2.1332,0.0413 0.70678,0.0574 1.41268,0.15875 2.12907,0.30489 0.7164,0.14615 1.44332,0.33699 2.19108,0.57361 0.56163,0.17772 1.13922,0.39846 1.69499,0.64079 0.55577,0.24233 1.08985,0.50628 1.56321,0.77049 0.47336,0.26422 0.88605,0.52868 1.20045,0.77205 0.3144,0.24337 0.53038,0.46562 0.60926,0.64544 0.13113,0.29892 0.19686,0.44804 0.25942,0.4315 0.0626,-0.0165 0.12194,-0.19877 0.24081,-0.56379 0.0654,-0.20091 0.12454,-0.87462 0.16743,-1.79834 0.0429,-0.92372 0.0696,-2.09745 0.0693,-3.29799 -2.5e-4,-0.96633 -0.007,-1.75029 -0.0269,-2.43655 -0.0203,-0.68625 -0.0549,-1.27488 -0.11214,-1.85053 -0.0572,-0.57565 -0.13704,-1.1385 -0.24805,-1.77302 -0.11101,-0.63452 -0.25297,-1.34062 -0.4346,-2.20348 -0.22397,-1.06396 -0.42234,-1.94625 -0.62218,-2.72128 -0.19984,-0.77504 -0.40106,-1.44285 -0.63045,-2.07739 -0.2294,-0.63455 -0.48732,-1.23595 -0.79996,-1.87844 -0.31263,-0.6425 -0.68008,-1.32607 -1.12964,-2.12494 -0.38627,-0.68639 -0.79758,-1.36609 -1.23197,-2.0376 -0.43438,-0.67151 -0.89172,-1.3348 -1.37097,-1.98902 -0.47926,-0.65423 -0.98032,-1.29917 -1.5012,-1.93374 -0.52089,-0.63456 -1.06183,-1.25869 -1.62109,-1.8712 -0.55927,-0.61251 -1.13676,-1.21389 -1.73116,-1.80196 -0.5944,-0.58807 -1.20564,-1.16319 -1.83193,-1.72444 -0.62629,-0.56125 -1.26795,-1.10818 -1.92288,-1.64021 -0.65494,-0.53203 -1.32316,-1.04883 -2.0035,-1.54926 -0.68034,-0.50043 -1.37232,-0.98463 -2.07481,-1.45107 -0.70249,-0.46645 -1.41542,-0.91559 -2.13682,-1.34566 -0.7214,-0.43007 -1.45143,-0.84117 -2.1885,-1.23248 -0.73706,-0.39131 -1.48139,-0.76243 -2.23087,-1.11259 -0.74948,-0.35017 -1.50426,-0.67937 -2.26291,-0.98599 -0.75865,-0.30663 -1.52107,-0.59093 -2.28565,-0.85163 -0.76458,-0.2607 -1.5313,-0.49764 -2.29856,-0.71003 -0.76727,-0.2124 -1.53497,-0.40003 -2.30167,-0.56173 -0.87559,-0.18466 -1.96818,-0.31899 -3.16363,-0.40359 -1.19545,-0.0846 -2.49377,-0.11945 -3.78117,-0.10645 z" /><path
         id="path5-9-5-9-5-2-8"
         style="display:inline;fill:#f29130;fill-opacity:1;stroke:none;stroke-width:0.227634"
         d="m 368.96754,536.89283 c -1.15447,0.0107 -2.29928,0.0611 -3.33189,0.15058 -0.51631,0.0447 -1.00431,0.0993 -1.45185,0.16337 -0.44753,0.064 -0.8544,0.13779 -1.20763,0.22095 -0.60807,0.14314 -1.21762,0.31661 -1.82305,0.51655 -0.60542,0.19995 -1.2067,0.42632 -1.79754,0.67567 -0.59085,0.24933 -1.17162,0.52167 -1.73592,0.813 -0.56432,0.29134 -1.11232,0.6014 -1.63814,0.92733 -0.52583,0.32592 -1.02929,0.66764 -1.50469,1.02074 -0.4754,0.3531 -0.92251,0.71782 -1.33553,1.0907 -0.41303,0.37288 -0.792,0.75364 -1.13071,1.13889 -0.33871,0.38525 -0.63729,0.77512 -0.88974,1.16534 -0.31523,0.48726 -0.57448,0.94766 -0.78641,1.41786 -0.21191,0.47021 -0.37646,0.95022 -0.50233,1.47545 -0.12585,0.52523 -0.21311,1.09568 -0.27016,1.74801 -0.057,0.65234 -0.0839,1.38659 -0.0894,2.23812 -0.006,1.03858 0.0297,1.97686 0.11771,2.84725 0.088,0.87038 0.22774,1.67264 0.42726,2.43945 0.19953,0.76682 0.45901,1.49792 0.78686,2.22576 0.32786,0.72784 0.72399,1.45265 1.19699,2.20612 0.26282,0.4187 0.5388,0.82517 0.82764,1.21995 0.28882,0.39478 0.59054,0.77778 0.90549,1.1487 0.31495,0.37093 0.64307,0.7299 0.98427,1.07705 0.3412,0.34715 0.69547,0.68239 1.06306,1.00582 0.36758,0.32342 0.7482,0.63523 1.14229,0.93499 0.3941,0.29977 0.80174,0.58761 1.22247,0.86377 0.42073,0.27617 0.85466,0.54033 1.30217,0.79297 0.44751,0.25263 0.9084,0.49384 1.3828,0.723 0.94882,0.45833 1.9517,0.86963 3.0089,1.23445 1.0572,0.36482 2.16897,0.68281 3.33559,0.95463 1.16662,0.2718 2.38801,0.49719 3.66508,0.6765 1.27708,0.17931 2.6097,0.31281 3.99827,0.40011 1.61022,0.10125 3.1607,0.16261 4.68781,0.18299 1.52712,0.0204 3.03067,-4.8e-4 4.54694,-0.064 1.51628,-0.0635 3.04523,-0.16951 4.62294,-0.31992 1.57772,-0.1504 3.20441,-0.34489 4.91582,-0.58523 0.67506,-0.0948 1.3299,-0.15472 1.97457,-0.17915 0.64468,-0.0244 1.27915,-0.0133 1.91294,0.0341 0.6338,0.0474 1.26681,0.13104 1.90923,0.25167 0.64243,0.12063 1.29429,0.27816 1.96484,0.47347 0.50364,0.1467 1.02159,0.3289 1.51998,0.52893 0.49838,0.20003 0.97732,0.4179 1.4018,0.63598 0.42448,0.2181 0.79456,0.43639 1.0765,0.63728 0.28193,0.20088 0.47561,0.38433 0.54635,0.53276 0.11759,0.24674 0.17653,0.36983 0.23263,0.35618 0.0561,-0.0136 0.10935,-0.16407 0.21595,-0.46537 0.0587,-0.16584 0.11168,-0.72194 0.15014,-1.48441 0.0385,-0.76246 0.0624,-1.73129 0.0621,-2.72226 -2.2e-4,-0.79763 -0.006,-1.44474 -0.0241,-2.0112 -0.0182,-0.56645 -0.0492,-1.05232 -0.10056,-1.52748 -0.0513,-0.47516 -0.12289,-0.93975 -0.22245,-1.46351 -0.0995,-0.52375 -0.22684,-1.10658 -0.38971,-1.81881 -0.20086,-0.87823 -0.37874,-1.6065 -0.55794,-2.24623 -0.1792,-0.63974 -0.35966,-1.19097 -0.56535,-1.71474 -0.20572,-0.52378 -0.437,-1.02019 -0.71736,-1.55052 -0.28035,-0.53034 -0.60986,-1.09458 -1.013,-1.75399 -0.34639,-0.56657 -0.71524,-1.12761 -1.10478,-1.6819 -0.38952,-0.55428 -0.79963,-1.10178 -1.22941,-1.64179 -0.42977,-0.54002 -0.87909,-1.07238 -1.34619,-1.59617 -0.46711,-0.52379 -0.95219,-1.03896 -1.45371,-1.54454 -0.50152,-0.50559 -1.01938,-1.00199 -1.55241,-1.4874 -0.53301,-0.48541 -1.08114,-0.96013 -1.64277,-1.4234 -0.56162,-0.46327 -1.13702,-0.91473 -1.72433,-1.35388 -0.58731,-0.43915 -1.18654,-0.86574 -1.79663,-1.27881 -0.61009,-0.41307 -1.23062,-0.81274 -1.86058,-1.19775 -0.62995,-0.38503 -1.26927,-0.75576 -1.91618,-1.11075 -0.64691,-0.35499 -1.30156,-0.69433 -1.96253,-1.01733 -0.66095,-0.323 -1.32843,-0.62933 -2.00052,-0.91836 -0.67209,-0.28904 -1.34894,-0.56078 -2.02925,-0.81387 -0.68032,-0.2531 -1.36402,-0.48777 -2.04965,-0.70296 -0.68563,-0.21519 -1.37319,-0.41077 -2.06122,-0.58608 -0.68805,-0.17532 -1.37648,-0.3302 -2.06401,-0.46367 -0.78519,-0.15242 -1.76496,-0.2633 -2.83698,-0.33313 -1.07201,-0.0698 -2.23627,-0.0986 -3.39074,-0.0879 z" /><path
         id="path1-3-1-4-7-7"
         style="display:inline;fill:#2f2f2f;fill-opacity:1"
         d="m 368.09833,526.12455 c -4.44225,0.15884 -8.8448,0.2184 -13.87719,1.8526 -4.54668,1.43736 -10.44501,5.45944 -11.28614,7.69617 -0.21166,0.56284 -0.52173,0.7396 -1.71772,0.97979 -4.77061,0.95807 -12.15104,6.62831 -15.72824,12.0835 -1.39697,2.13036 -3.14889,6.19862 -3.88245,9.01495 -0.63656,2.44391 -1.0066,7.12508 -0.81442,10.3079 0.23869,3.95322 0.83239,8.66092 1.33428,10.58334 0.84978,3.25483 3.26334,7.41542 4.88136,8.41395 l 0.64699,0.39946 -0.94878,0.39636 c -1.4371,0.60045 -3.08126,2.2305 -3.9057,3.8716 -2.84344,5.65995 -0.98307,13.10236 3.88038,15.52205 1.30746,0.6505 1.84603,0.76278 3.67884,0.76378 l 2.14716,0.002 0.16536,2.51871 c 0.30029,4.57296 1.6236,8.48356 4.23179,12.50415 0.47519,0.73252 2.69578,3.08527 3.05614,3.4189 l 1.82573,1.69034 -0.56896,0.52813 c -14.97713,10.58167 -30.9086,19.69904 -46.38425,29.50879 l 1.73995,3.1316 c 2.05252,4.02829 3.16025,5.66838 7.51013,11.11973 1.39472,1.74789 11.40571,13.8284 27.79986,21.80022 9.13674,4.44284 16.72058,6.67445 27.1539,7.99021 3.25866,0.41095 16.33145,0.30811 19.71145,-0.15503 6.2266,-0.85318 13.68165,-2.71489 18.78542,-4.69067 1.30969,-0.50701 4.04813,-1.73266 6.08542,-2.72386 14.05282,-6.8371 26.53815,-17.71409 34.00412,-29.62403 1.47496,-2.3529 2.19152,-3.83815 3.43287,-6.91793 -5.99594,-3.77992 -35.61561,-22.71922 -46.77492,-29.99248 -0.0426,-0.0359 0.96944,-1.12196 2.24895,-2.41328 1.54864,-1.56292 2.71984,-3.04633 3.50263,-4.43642 1.59603,-2.8343 3.10074,-7.36662 3.50108,-10.54561 l 0.32453,-2.57969 h 1.61902 c 5.34597,0 8.85734,-4.18433 8.85734,-10.55543 0,-2.63067 -0.50404,-4.87096 -1.42368,-6.32778 -0.80258,-1.27136 -3.20164,-3.44503 -4.03231,-3.65352 -0.62517,-0.15691 -0.88666,-0.62994 -0.3483,-0.62994 0.26314,0 3.56281,-2.78109 5.46271,-4.60437 0.98053,-0.94099 1.29131,-2.07698 1.51877,-5.5485 0.29478,-4.49889 -1.07876,-13.53281 -2.75022,-18.08727 -0.96784,-2.63723 -3.22409,-7.14388 -4.95783,-9.90327 -2.6994,-4.29629 -7.49223,-9.40058 -12.2437,-13.03952 -4.10107,-3.14081 -10.46219,-6.33816 -15.88585,-7.98504 -3.9629,-1.20331 -7.25517,-1.68275 -11.57552,-1.68465 z m -1.98386,7.24969 c 2.57479,-0.026 5.19361,0.14072 6.94479,0.51004 12.26718,2.58713 24.81422,11.81624 30.99449,22.79861 1.79824,3.19549 2.28633,4.54622 3.18224,8.80205 0.72653,3.45145 0.82065,4.39827 0.82165,8.26358 6.6e-4,2.40109 -0.10582,4.69452 -0.23667,5.09633 -0.23773,0.73004 -0.23797,0.73013 -0.50023,0.13229 -0.31553,-0.71926 -2.82141,-2.11788 -5.06791,-2.82876 -2.99105,-0.94648 -5.64414,-1.16219 -8.65529,-0.7028 -7.6339,1.16467 -13.75262,1.44302 -20.93515,0.95239 -12.38764,-0.84617 -20.77814,-5.24933 -25.4677,-13.36508 -2.10984,-3.65128 -2.84988,-6.74108 -2.81998,-11.77396 0.0245,-4.1265 0.43205,-5.97311 1.83813,-8.33437 2.2521,-3.78202 7.79574,-7.51496 13.22038,-8.9023 1.57562,-0.40296 4.10644,-0.62199 6.68125,-0.64802 z m -27.79366,13.42347 c 0.0827,0.0414 0.0609,0.15593 -0.0196,0.36587 -1.39875,3.64507 -0.91208,10.66675 0.98702,14.2384 l 0.68058,1.27952 -0.51884,0.70485 c -0.28522,0.38769 -0.87883,2.15843 -1.31929,3.93466 -0.56887,2.29409 -1.30177,4.28637 -2.5306,6.87865 -1.43809,3.03372 -2.13244,4.94375 -3.17862,8.74313 -0.14439,0.52439 -0.47445,0.39362 -1.33532,-0.52916 -1.27621,-1.36801 -1.90488,-2.69513 -2.5926,-5.4746 -1.47758,-5.97183 -1.42803,-13.86386 0.1173,-18.65158 1.22739,-3.8027 2.44534,-6.18976 4.06746,-7.97368 1.45849,-1.604 3.65977,-3.10954 5.03638,-3.44423 0.33622,-0.0817 0.52349,-0.11328 0.60616,-0.0718 z m 4.92529,26.44748 c 0.18375,-0.0679 0.70831,0.2549 1.96577,1.15291 3.762,2.68662 10.34116,5.61438 15.41198,6.85797 9.86814,2.42017 20.31815,2.94548 31.88229,1.60249 1.89177,-0.2197 4.15396,-0.46875 5.02708,-0.55345 l 1.5875,-0.154 -0.0656,11.34298 c -0.0706,12.14331 -0.24511,14.32681 -1.52807,19.12079 -0.35376,1.32191 -0.95815,3.02964 -1.34255,3.79512 -3.34929,6.66964 -9.69975,10.98461 -19.55333,13.286 -1.45521,0.33988 -3.18162,0.68681 -3.83646,0.77101 -5.70223,0.73323 -12.36667,0.0944 -17.99167,-1.72444 -1.74874,-0.56546 -5.27225,-2.44194 -6.67866,-3.20031 -0.64311,-0.34679 -1.11612,-0.65826 -2.05259,-1.38028 -1.41479,-1.05082 -4.03981,-3.9434 -4.7935,-4.82296 -0.65731,-0.76708 -0.75393,-0.98592 -1.53479,-2.62878 -0.41965,-0.85482 -1.03897,-2.68552 -1.37615,-4.06797 -0.58139,-2.38366 -0.62125,-3.14244 -0.76584,-14.68437 -0.17872,-14.26701 -0.4261,-12.7422 3.17086,-19.51819 1.31411,-2.47555 2.38901,-4.72693 2.38901,-5.00331 0,-0.10272 0.0236,-0.16858 0.0847,-0.19121 z m 61.034,17.63304 1.65364,1.43815 c 2.83011,2.46112 4.00778,5.59568 3.00447,7.99693 -0.2029,0.48563 -0.64616,1.07683 -0.98495,1.31413 -1.00068,0.7009 -2.26999,0.55258 -3.19671,-0.37414 -0.69931,-0.69935 -0.78497,-0.9357 -0.6444,-1.78593 0.0891,-0.53895 0.16285,-2.69223 0.16485,-4.78472 z m -71.70209,0.0548 v 4.89996 4.89996 l -1.09812,0.7953 c -1.42218,1.03019 -2.17801,1.01147 -3.27009,-0.0806 -1.62168,-1.62169 -1.84487,-4.43927 -0.52916,-6.68435 0.6461,-1.10249 2.34708,-2.53172 4.03748,-3.39256 z m 11.25255,38.90718 c 0.0482,0 1.31615,0.7635 2.81791,1.69654 1.50175,0.93305 3.40145,1.96985 4.22093,2.30373 l 1.48983,0.60668 0.13901,1.35031 c 0.0889,0.86127 0.76032,2.73287 1.85415,5.17074 2.63528,5.87329 5.00988,10.60833 5.39451,10.75593 0.25129,0.0964 0.1374,0.40008 -0.41186,1.0971 -0.41777,0.53014 -1.16567,1.77191 -1.66192,2.75952 l -0.90227,1.79575 -0.91312,-1.26659 c -0.94987,-1.31721 -1.72675,-2.6046 -5.10873,-8.46925 -2.86194,-4.9628 -3.7157,-6.7384 -4.95112,-10.29859 -0.9643,-2.7789 -2.20279,-7.50187 -1.96732,-7.50187 z m 48.2415,0.26458 c 0.53979,0 0.32141,1.53704 -0.64906,4.56923 -1.03259,3.22627 -2.93587,7.20583 -5.53351,11.57036 -2.96993,4.98998 -4.21093,7.06444 -5.52576,9.23767 -0.71198,1.17681 -1.36681,2.13672 -1.45521,2.13372 -0.0884,-0.003 -0.67918,-1.19012 -1.3131,-2.63704 -0.63392,-1.44694 -1.30712,-2.75881 -1.49603,-2.91559 -0.27356,-0.22704 -0.19983,-0.44247 0.36173,-1.0573 0.38778,-0.42456 2.21266,-3.72579 4.05557,-7.3365 2.85152,-5.58682 3.37861,-6.81029 3.53725,-8.21242 0.15575,-1.37668 0.26894,-1.64796 0.68885,-1.64796 0.60668,0 3.19004,-1.28091 5.4069,-2.68097 0.89094,-0.56267 1.7562,-1.0232 1.92237,-1.0232 z m -13.8219,6.16087 c 0.0627,0.0627 -0.34699,0.87486 -0.91002,1.80505 -1.06234,1.75518 -1.33197,2.24066 -4.54598,8.17367 -1.06422,1.96451 -2.09582,3.70481 -2.29185,3.86694 -0.19603,0.16214 -1.36507,0.31697 -2.59829,0.34417 l -2.24224,0.0491 -0.88522,-1.4025 c -0.48688,-0.7714 -1.81448,-3.18844 -2.9502,-5.37125 -2.46351,-4.73475 -3.82561,-7.01145 -4.19458,-7.01145 -0.14908,0 -0.20676,-0.064 -0.12816,-0.14263 0.0786,-0.0786 1.34663,0.0369 2.8174,0.25683 4.60011,0.68782 8.52721,0.78683 12.34137,0.31213 1.89177,-0.23544 3.89722,-0.55539 4.45657,-0.71107 0.55935,-0.15572 1.0685,-0.23168 1.1312,-0.16898 z m -38.30515,2.0717 0.17208,1.1095 c 0.42306,2.73056 1.21571,6.61131 1.43299,7.01559 0.13107,0.24386 1.02042,1.18699 1.97662,2.09548 0.95621,0.90849 1.97372,2.11197 2.26084,2.67477 0.60651,1.18885 2.46125,7.46922 3.05873,10.35751 0.56129,2.71335 1.55078,6.83683 3.11144,12.96458 2.02602,7.95491 3.60494,14.44573 4.15168,17.06563 0.27331,1.30969 0.58161,2.64914 0.68472,2.97656 0.10313,0.32742 0.0842,0.58172 -0.0419,0.56482 -0.34951,-0.0468 -1.10069,-0.21876 -3.27577,-0.74982 l -1.98748,-0.48524 c -1.18639,-0.35686 -1.73285,-0.45974 -2.86184,-0.75035 -0.60514,-0.19001 -2.11222,-0.66028 -3.34915,-1.04489 -5.97441,-1.85766 -14.21948,-6.16043 -19.57916,-10.21798 -5.5223,-4.18067 -9.69657,-8.04081 -14.34952,-13.26948 -2.76285,-3.10469 -6.11666,-7.31655 -5.83065,-7.32255 0.11243,-0.002 0.0383,-0.10885 -0.16433,-0.23719 -0.28316,-0.1793 -0.12993,-0.39382 0.66146,-0.92604 0.56648,-0.38099 1.93778,-1.31618 3.04736,-2.07791 1.10958,-0.76174 3.60286,-2.39696 5.54023,-3.63389 1.93738,-1.23692 4.63212,-2.96333 5.98826,-3.83646 1.35616,-0.87312 3.72091,-2.3614 5.25498,-3.30729 1.53406,-0.94588 3.76229,-2.35587 4.95215,-3.13366 1.18986,-0.77778 3.17845,-2.01127 4.41886,-2.74092 1.24039,-0.72966 2.81142,-1.7236 3.49125,-2.20865 z m 56.69163,0.18811 c 0.16656,-0.034 2.40107,1.3334 6.40891,3.92172 2.06149,1.33134 6.34279,4.06979 9.51363,6.08542 6.01219,3.82182 19.01951,12.23238 19.22208,12.4287 -2.97519,3.54832 -6.01796,7.15535 -9.24491,10.51873 -4.82333,5.01577 -9.72886,8.8856 -16.61656,13.10721 -3.90947,2.39619 -9.5621,5.29555 -11.86336,6.0849 -0.8525,0.29243 -2.73214,0.95283 -4.17649,1.46762 -1.44435,0.51478 -1.60523,0.59682 -2.97656,0.93586 l -6.38669,1.711 c -2.26071,0.47387 -2.16576,0.46524 -2.16576,0.19482 0,-0.48415 1.17808,-5.55008 2.38125,-10.2402 0.70929,-2.76489 1.82395,-7.11067 2.47685,-9.65729 3.56528,-13.90629 5.41375,-20.32673 6.66988,-23.16706 0.40993,-0.92691 1.32494,-2.20276 2.34249,-3.26595 1.99215,-2.0815 2.0475,-2.18181 2.78588,-5.04982 0.62612,-2.43203 1.46393,-5.04196 1.62936,-5.07566 z m -29.21734,16.71474 c 1.5197,0 3.3641,1.14129 4.57284,2.82928 1.49581,2.08888 1.5419,2.44318 0.55449,4.24677 -0.45856,0.83761 -1.02493,1.9694 -1.25884,2.51509 l -0.42529,0.99219 h -2.45205 c -1.34847,0 -2.61627,0.0634 -2.8174,0.14056 -0.22566,0.0866 -0.53922,-0.192 -0.81959,-0.7276 -0.24989,-0.47737 -0.88126,-1.56392 -1.40249,-2.41432 -0.83417,-1.36101 -0.92718,-1.6834 -0.77618,-2.69028 0.326,-2.17394 3.00653,-4.89169 4.82451,-4.89169 z m -13.39867,7.10654 0.8015,0.67386 c 1.14138,0.9604 2.90371,2.93603 4.74287,5.31596 1.1654,1.50807 1.58801,2.2756 1.58801,2.88354 0,0.45564 -0.36163,2.49357 -0.80408,4.52892 -0.44246,2.03537 -0.96701,4.71259 -1.16531,5.94951 -0.1983,1.23693 -0.37192,1.99667 -0.38602,1.68827 -0.0141,-0.30841 -0.56597,-3.04685 -1.22628,-6.08542 -0.6603,-3.03855 -1.56077,-7.24262 -2.00091,-9.34258 -0.44013,-2.09995 -0.96898,-4.22212 -1.17512,-4.71547 z m 27.17715,0.25683 -0.92449,3.66076 c -0.5086,2.01334 -1.75303,6.87366 -2.7652,10.80089 -1.01218,3.92726 -1.88557,7.18551 -1.94097,7.24091 -0.29618,0.29616 -0.82469,-3.64228 -1.20871,-9.00772 l -0.33176,-4.63331 2.52697,-3.01584 c 1.38981,-1.65886 3.00308,-3.47314 3.58531,-4.03128 z m -13.6927,8.24705 c 1.25782,0 1.90317,0.10791 1.97817,0.33072 0.0612,0.1819 0.36004,3.3073 0.66405,6.94532 0.304,3.638 0.59887,7.0313 0.65577,7.54062 0.41943,3.75597 0.98049,10.09297 0.89969,10.16217 -0.18377,0.15746 -3.57601,0.42737 -3.7083,0.29508 -0.0722,-0.0723 -1.64749,-0.14667 -3.50057,-0.16537 l -3.3693,-0.0341 0.14314,-0.69711 c 0.0787,-0.38342 0.50312,-2.89977 0.9431,-5.59191 1.88249,-11.51853 2.9297,-17.47707 3.19412,-18.17253 0.21326,-0.56092 0.39161,-0.61288 2.10013,-0.61288 z"
         sodipodi:nodetypes="scssssssccsssccsssccccsssssssccssccssssssssssscssssssssssssssssscccssssssssssssssccsssssscscsssssccscssccccccssccsscscssssccssssssssssssssssssssccssssssssccsscssssssccssscssssssssccssscssssssssccsssssssssssssccssscsssscccsscscccssscssccssssscssss" /><path
         id="path1-4-5-1-0-3-0"
         style="display:inline;fill:#000000"
         d="m 336.2757,652.72266 c -0.0332,-0.0359 -0.0961,-0.0267 -0.1912,0.032 -0.23476,0.14508 -6.42661,1.56559 -10.54716,2.42001 -2.05225,0.42555 -2.51369,0.66983 -1.93942,1.02474 0.13372,0.0827 0.6758,0.92359 1.20458,1.86914 0.72153,1.29022 1.04905,2.29669 1.31361,4.03283 0.52203,3.42552 2.45054,8.18589 5.16093,12.73927 1.51014,2.53699 2.32206,3.55184 4.69119,5.86631 5.3507,5.22723 9.60355,8.59657 13.07103,10.35596 0.59634,0.30257 1.07854,0.57416 1.44436,0.80408 l 0.73765,-0.47238 -1.50711,-1.48512 c -4.6141,-4.54677 -10.1336,-11.5367 -13.00386,-16.76384 -2.19714,-4.0013 -3.24839,-6.51922 -4.22972,-10.13013 l -0.59634,-2.19263 1.45056,-2.30528 c 1.94223,-3.08692 3.17324,-5.54401 2.9409,-5.795 z"
         sodipodi:nodetypes="cssssccsscccsssssc" /><path
         id="path1-4-4-8-1-2-4-8"
         style="display:inline;fill:#000000"
         d="m 399.07795,652.61687 c 0.0332,-0.0359 0.0961,-0.0267 0.1912,0.032 0.23476,0.14508 6.42661,1.56559 10.54716,2.42001 2.05225,0.42555 2.51369,0.66983 1.93942,1.02474 -0.13372,0.0827 -0.6758,0.92359 -1.20458,1.86914 -0.72153,1.29022 -1.04905,2.29669 -1.31361,4.03283 -0.52203,3.42552 -2.45054,8.18589 -5.16093,12.73927 -1.51014,2.53699 -2.32206,3.55184 -4.69119,5.86631 -5.3507,5.22723 -9.60355,8.59657 -13.07103,10.35596 -0.59634,0.30257 -1.07854,0.57416 -1.44436,0.80408 l -0.73765,-0.47238 1.50711,-1.48512 c 4.6141,-4.54677 10.1336,-11.5367 13.00386,-16.76384 2.19714,-4.0013 3.24839,-6.51922 4.22972,-10.13013 l 0.59634,-2.19263 -1.45056,-2.30528 c -1.94223,-3.08692 -3.17324,-5.54401 -2.9409,-5.795 z"
         sodipodi:nodetypes="cssssccsscccsssssc" /></g><path
       style="font-size:210.194px;line-height:0;font-family:'Nunito Sans';-inkscape-font-specification:'Nunito Sans, @wght=800,wdth=86.4';font-variation-settings:'wdth' 86.4, 'wght' 800;fill:url(#linearGradient3);fill-opacity:1;fill-rule:evenodd;stroke-width:0.689616"
       d="m 306.15048,-104.12416 v -150 h 39.81404 l 35.76876,86.80851 h 0.63873 l 35.55585,-86.80851 H 457.529 v 150 h -32.36222 v -101.27659 h -1.91618 l -31.08476,74.68085 h -20.86511 l -30.87185,-74.68085 h -2.12909 v 101.27659 z m 169.04989,0 v -150 h 33.63968 v 150 z"
       id="text2-4-4-5"
       aria-label="MI" /></g></svg>
