<?xml version="1.0" encoding="UTF-8" standalone="no"?>
<!-- Created with Inkscape (http://www.inkscape.org/) -->

<svg
   width="272.40109mm"
   height="380.98056mm"
   viewBox="0 0 272.40109 380.98056"
   version="1.1"
   id="svg1"
   xml:space="preserve"
   inkscape:version="1.3 (0e150ed6c4, 2023-07-21)"
   sodipodi:docname="marcar.svg"
   inkscape:export-filename="..\EleccionesMunicipal\static\favicon.png"
   inkscape:export-xdpi="96"
   inkscape:export-ydpi="96"
   xmlns:inkscape="http://www.inkscape.org/namespaces/inkscape"
   xmlns:sodipodi="http://sodipodi.sourceforge.net/DTD/sodipodi-0.dtd"
   xmlns="http://www.w3.org/2000/svg"
   xmlns:svg="http://www.w3.org/2000/svg"><sodipodi:namedview
     id="namedview1"
     pagecolor="#ffffff"
     bordercolor="#000000"
     borderopacity="0.25"
     inkscape:showpageshadow="2"
     inkscape:pageopacity="0.0"
     inkscape:pagecheckerboard="0"
     inkscape:deskcolor="#d1d1d1"
     inkscape:document-units="mm"
     showguides="true"
     inkscape:zoom="0.3535534"
     inkscape:cx="446.89147"
     inkscape:cy="804.6875"
     inkscape:window-width="1920"
     inkscape:window-height="1009"
     inkscape:window-x="1912"
     inkscape:window-y="-8"
     inkscape:window-maximized="1"
     inkscape:current-layer="g2-4-0" /><defs
     id="defs1"><clipPath
       clipPathUnits="userSpaceOnUse"
       id="clipPath54"><path
         id="path54"
         style="stroke-width:0.0999999;stroke-linecap:square;paint-order:markers fill stroke;stop-color:#000000"
         d="m 1691.1994,-792.32001 h 1634.8919 v 92.82806 H 1691.1994 Z" /></clipPath><linearGradient
       id="linearGradient79"
       inkscape:swatch="gradient"><stop
         style="stop-color:#d40000;stop-opacity:1;"
         offset="0"
         id="stop79" /><stop
         style="stop-color:#127736;stop-opacity:1;"
         offset="0.33072916"
         id="stop81" /><stop
         style="stop-color:#29652e;stop-opacity:1;"
         offset="0.72395831"
         id="stop82" /><stop
         style="stop-color:#ffd7d7;stop-opacity:1;"
         offset="1"
         id="stop80" /></linearGradient></defs><g
     inkscape:label="Layer 1"
     inkscape:groupmode="layer"
     id="layer1"
     transform="translate(-503.01185,325.38416)" /><g
     inkscape:groupmode="layer"
     id="layer4"
     inkscape:label="circulo"
     transform="translate(-228.68467,387.3313)" /><g
     inkscape:groupmode="layer"
     id="layer3"
     inkscape:label="Colores"
     style="display:inline"
     transform="translate(-228.68467,387.3313)" /><g
     inkscape:groupmode="layer"
     id="layer2"
     inkscape:label="Contorno"
     style="display:inline"
     transform="translate(-228.68467,387.3313)"><g
       id="g2-4-0"
       transform="matrix(0.76284834,0,0,0.7159783,340.29213,-607.08468)"
       style="display:inline"><path
         id="rect2"
         style="font-variation-settings:'wght' 400;fill:#6e6e6e;fill-opacity:0.13283208;fill-rule:evenodd;stroke-width:0.335726;stroke:#c8c8c8;stroke-opacity:1"
         d="M 234.4621 246.14137 C 232.09703 249.6479 230.7187 253.88022 230.7187 258.44605 C 230.7187 270.62158 240.52037 280.42317 252.69591 280.42317 L 484.13259 280.4233 L 588.94777 480.92938 C 594.46193 491.4777 607.89469 495.53075 619.06591 490.01659 C 630.23713 484.50242 634.79169 471.5709 629.27753 461.02257 L 534.86853 280.42327 L 743.32763 280.42352 C 755.50316 280.42352 765.30531 270.62111 765.30531 258.44557 C 765.30531 246.27004 755.50304 236.46809 743.3275 236.46809 L 511.89082 236.46796 L 407.07564 35.961884 C 401.56148 25.413557 388.12932 21.360869 376.9581 26.875033 C 365.78688 32.389196 361.23232 45.320725 366.74648 55.869052 L 461.15487 236.46799 L 252.69638 236.4681 C 245.08667 236.4681 238.40389 240.29716 234.4621 246.14137 z "
         transform="matrix(0.4990884,0.86655108,-0.8369786,0.54723562,0,0)" /></g></g></svg>
