<?xml version="1.0" encoding="UTF-8" standalone="no"?>
<svg
   class="icon icon-tabler icon-tabler-cardboards-off"
   width="24"
   height="24"
   viewBox="0 0 24 24"
   stroke-width="2"
   stroke="currentColor"
   fill="none"
   stroke-linecap="round"
   stroke-linejoin="round"
   version="1.1"
   id="svg5"
   sodipodi:docname="cardboards-off.svg"
   inkscape:version="1.3 (0e150ed6c4, 2023-07-21)"
   xmlns:inkscape="http://www.inkscape.org/namespaces/inkscape"
   xmlns:sodipodi="http://sodipodi.sourceforge.net/DTD/sodipodi-0.dtd"
   xmlns="http://www.w3.org/2000/svg"
   xmlns:svg="http://www.w3.org/2000/svg">
  <defs
     id="defs5" />
  <sodipodi:namedview
     id="namedview5"
     pagecolor="#ffffff"
     bordercolor="#000000"
     borderopacity="0.25"
     inkscape:showpageshadow="2"
     inkscape:pageopacity="0.0"
     inkscape:pagecheckerboard="0"
     inkscape:deskcolor="#d1d1d1"
     inkscape:zoom="16.351844"
     inkscape:cx="6.5130268"
     inkscape:cy="7.8584408"
     inkscape:window-width="1920"
     inkscape:window-height="1009"
     inkscape:window-x="1912"
     inkscape:window-y="-8"
     inkscape:window-maximized="1"
     inkscape:current-layer="svg5" />
  <path
     stroke="none"
     d="M0 0h24v24H0z"
     fill="none"
     id="path1" />
  <path
     d="M20.96 16.953c.026 -.147 .04 -.298 .04 -.453v-8.5a2 2 0 0 0 -2 -2h-9m-4 0h-1a2 2 0 0 0 -2 2v8.5a2.5 2.5 0 0 0 2.5 2.5h1.06a3 3 0 0 0 2.34 -1.13l1.54 -1.92a2 2 0 0 1 3.12 0l1.54 1.92a3 3 0 0 0 2.34 1.13h1.06c.155 0 .307 -.014 .454 -.041"
     id="path2"
     style="stroke:#888888;stroke-opacity:1" />
  <path
     d="M8 12m-1 0a1 1 0 1 0 2 0a1 1 0 1 0 -2 0"
     id="path3"
     style="stroke:#888888;stroke-opacity:1" />
  <path
     d="M16.714 12.7a1 1 0 0 0 -1.417 -1.411l1.417 1.41z"
     id="path4"
     style="stroke:#888888;stroke-opacity:1" />
  <path
     d="M3 3l18 18"
     id="path5"
     style="stroke:#883f3f;stroke-opacity:1" />
</svg>
